<svg width="560px" height="121.4px" xmlns="http://www.w3.org/2000/svg" viewBox="-29.98124999999999 14.308129882812501 559.9625 121.383740234375" style="background-color: rgba(0, 0, 0, 0)" preserveAspectRatio="xMidYMid"><defs><filter id="editing-hover" x="-100%" y="-100%" width="300%" height="300%"><feFlood flood-color="#e4e4e5" result="flood"></feFlood><feComposite operator="in" in2="SourceAlpha" in="flood" result="shadow"></feComposite><feOffset dx="2.2" dy="-2.6" in="SourceGraphic" result="offset-1"></feOffset><feOffset dx="-2.2" dy="2.6" in="shadow" result="offset-2"></feOffset><feMerge><feMergeNode in="offset-2"></feMergeNode><feMergeNode in="offset-1"></feMergeNode></feMerge></filter></defs><g filter="url(#editing-hover)"><g transform="matrix(1.3,0,0,1.3,16.2,152.7)"><path d="M 3.4 -64.7 L 3.4 -64.7 L 3.4 -64.7 Q 5.7 -68.8 5.7 -73 L 5.7 -73 L 5.7 -73 Q 5.7 -75.7 3.8 -75.7 L 3.8 -75.7 L 3.8 -75.7 Q 2.2 -75.7 0.6 -73.1 L 0.6 -73.1 L 0.6 -73.1 Q -1 -70.5 -1.6 -67.1 L -1.6 -67.1 L -4.9 -46.7 L -18.1 -45.4 L -11.6 -79.4 L -1 -80.6 L -2.2 -74.2 L -2.2 -74.2 Q 0.9 -80.6 8 -80.6 L 8 -80.6 L 8 -80.6 Q 11.7 -80.6 13.7 -78.7 L 13.7 -78.7 L 13.7 -78.7 Q 15.7 -76.8 15.7 -72.9 L 15.7 -72.9 L 15.7 -72.9 Q 15.7 -68.9 13.1 -66.4 L 13.1 -66.4 L 13.1 -66.4 Q 10.5 -63.9 6.1 -63.9 L 6.1 -63.9 L 6.1 -63.9 Q 4.2 -63.9 3.4 -64.7 Z M 42.7 -57.5 L 42.7 -57.5 L 42.7 -57.5 Q 44.3 -56.5 44.3 -54.1 L 44.3 -54.1 L 44.3 -54.1 Q 44.3 -51.7 43.1 -50.1 L 43.1 -50.1 L 43.1 -50.1 Q 41.8 -48.6 39.9 -47.6 L 39.9 -47.6 L 39.9 -47.6 Q 35.8 -45.4 31.3 -45.4 L 31.3 -45.4 L 31.3 -45.4 Q 26.9 -45.4 24.3 -46.4 L 24.3 -46.4 L 24.3 -46.4 Q 21.7 -47.4 20 -49.2 L 20 -49.2 L 20 -49.2 Q 16.6 -52.5 16.6 -58.8 L 16.6 -58.8 L 16.6 -58.8 Q 16.6 -68.4 21.9 -74.3 L 21.9 -74.3 L 21.9 -74.3 Q 27.5 -80.6 37.3 -80.6 L 37.3 -80.6 L 37.3 -80.6 Q 43.4 -80.6 46.4 -78.1 L 46.4 -78.1 L 46.4 -78.1 Q 48.6 -76.2 48.6 -73 L 48.6 -73 L 48.6 -73 Q 48.6 -61.8 29.2 -61.8 L 29.2 -61.8 L 29.2 -61.8 Q 28.9 -60.1 28.9 -58.7 L 28.9 -58.7 L 28.9 -58.7 Q 28.9 -55.7 30.2 -54.6 L 30.2 -54.6 L 30.2 -54.6 Q 31.5 -53.5 34 -53.5 L 34 -53.5 L 34 -53.5 Q 36.4 -53.5 39 -54.6 L 39 -54.6 L 39 -54.6 Q 41.6 -55.7 42.7 -57.5 Z M 29.6 -64.5 L 29.6 -64.5 L 29.6 -64.5 Q 34.2 -64.5 36.8 -67.3 L 36.8 -67.3 L 36.8 -67.3 Q 39.4 -70 39.4 -74.3 L 39.4 -74.3 L 39.4 -74.3 Q 39.4 -75.8 38.9 -76.6 L 38.9 -76.6 L 38.9 -76.6 Q 38.3 -77.4 37.2 -77.4 L 37.2 -77.4 L 37.2 -77.4 Q 36.1 -77.4 35.2 -77 L 35.2 -77 L 35.2 -77 Q 34.3 -76.5 33.3 -75.1 L 33.3 -75.1 L 33.3 -75.1 Q 31 -71.9 29.6 -64.5 Z M 53.6 -48.6 L 53.6 -48.6 L 53.6 -48.6 Q 52.1 -50.3 51.4 -52.9 L 51.4 -52.9 L 51.4 -52.9 Q 50.7 -55.6 50.7 -59.8 L 50.7 -59.8 L 50.7 -59.8 Q 50.7 -64.1 52.2 -68 L 52.2 -68 L 52.2 -68 Q 53.7 -71.9 56.4 -74.8 L 56.4 -74.8 L 56.4 -74.8 Q 61.9 -80.6 71 -80.6 L 71 -80.6 L 71 -80.6 Q 74.2 -80.6 76.6 -79.6 L 76.6 -79.6 L 87.5 -80.6 L 82.8 -55.7 L 82.8 -55.7 Q 82.6 -54.9 82.6 -53.5 L 82.6 -53.5 L 82.6 -53.5 Q 82.6 -52.1 83.5 -51.2 L 83.5 -51.2 L 83.5 -51.2 Q 84.3 -50.3 85.6 -50.2 L 85.6 -50.2 L 85.6 -50.2 Q 85 -48 82.6 -46.7 L 82.6 -46.7 L 82.6 -46.7 Q 80.3 -45.4 77.7 -45.4 L 77.7 -45.4 L 77.7 -45.4 Q 75.1 -45.4 73.3 -46.4 L 73.3 -46.4 L 73.3 -46.4 Q 71.5 -47.4 71 -49.1 L 71 -49.1 L 71 -49.1 Q 70 -47.5 67.8 -46.5 L 67.8 -46.5 L 67.8 -46.5 Q 65.6 -45.4 62.7 -45.4 L 62.7 -45.4 L 62.7 -45.4 Q 59.8 -45.4 57.5 -46.2 L 57.5 -46.2 L 57.5 -46.2 Q 55.1 -47 53.6 -48.6 Z M 67.1 -74.6 L 67.1 -74.6 L 67.1 -74.6 Q 66.3 -73.5 65.7 -71.5 L 65.7 -71.5 L 65.7 -71.5 Q 65.1 -69.6 64 -64.4 L 64 -64.4 L 64 -64.4 Q 63 -59.1 63 -55.4 L 63 -55.4 L 63 -55.4 Q 63 -51.7 63.5 -50.6 L 63.5 -50.6 L 63.5 -50.6 Q 64.1 -49.5 65.1 -49.5 L 65.1 -49.5 L 65.1 -49.5 Q 67.2 -49.5 68.7 -51.5 L 68.7 -51.5 L 68.7 -51.5 Q 70.2 -53.4 70.8 -56.9 L 70.8 -56.9 L 74.2 -75.7 L 74.2 -75.7 Q 72.8 -76.8 71.2 -76.8 L 71.2 -76.8 L 71.2 -76.8 Q 69.7 -76.8 68.7 -76.3 L 68.7 -76.3 L 68.7 -76.3 Q 67.8 -75.8 67.1 -74.6 Z M 122.2 -73.3 L 122.2 -73.3 L 122.2 -73.3 Q 122.2 -70.7 119.9 -69 L 119.9 -69 L 119.9 -69 Q 117.7 -67.3 114 -67.3 L 114 -67.3 L 114 -67.3 Q 112.5 -67.3 111.6 -67.8 L 111.6 -67.8 L 111.6 -67.8 Q 112.3 -69.4 112.5 -71.5 L 112.5 -71.5 L 112.5 -71.5 Q 112.7 -73.6 112.7 -74.2 L 112.7 -74.2 L 112.7 -74.2 Q 112.7 -76.9 110.9 -76.9 L 110.9 -76.9 L 110.9 -76.9 Q 109.6 -76.9 108.2 -75.3 L 108.2 -75.3 L 108.2 -75.3 Q 106.7 -73.7 105.5 -71.2 L 105.5 -71.2 L 105.5 -71.2 Q 102.8 -65.4 102.8 -59.6 L 102.8 -59.6 L 102.8 -59.6 Q 102.8 -56.4 104 -54.9 L 104 -54.9 L 104 -54.9 Q 105.3 -53.5 107.9 -53.5 L 107.9 -53.5 L 107.9 -53.5 Q 111.7 -53.5 114.6 -56.6 L 114.6 -56.6 L 114.6 -56.6 Q 115.4 -57.5 115.9 -58.6 L 115.9 -58.6 L 115.9 -58.6 Q 118.3 -57.3 118.3 -53.8 L 118.3 -53.8 L 118.3 -53.8 Q 118.3 -50.2 114.3 -47.9 L 114.3 -47.9 L 114.3 -47.9 Q 110.3 -45.4 103.7 -45.4 L 103.7 -45.4 L 103.7 -45.4 Q 90.7 -45.4 90.7 -59.2 L 90.7 -59.2 L 90.7 -59.2 Q 90.7 -69.3 96.4 -75 L 96.4 -75 L 96.4 -75 Q 101.9 -80.6 112 -80.6 L 112 -80.6 L 112 -80.6 Q 122.2 -80.6 122.2 -73.3 Z M 124.9 -53.1 L 124.9 -53.1 L 124.9 -53.1 Q 124.9 -54.9 125.8 -59.2 L 125.8 -59.2 L 129.2 -76.5 L 125.4 -76.5 L 125.7 -78.4 L 125.7 -78.4 Q 133.4 -80.7 140.8 -86.3 L 140.8 -86.3 L 143.9 -86.3 L 142.3 -79.4 L 147.3 -79.4 L 146.7 -76.5 L 141.8 -76.5 L 138.5 -59.2 L 138.5 -59.2 Q 137.7 -55.2 137.7 -53.9 L 137.7 -53.9 L 137.7 -53.9 Q 137.7 -50.8 140.4 -50.2 L 140.4 -50.2 L 140.4 -50.2 Q 139.8 -48 137.5 -46.7 L 137.5 -46.7 L 137.5 -46.7 Q 135.1 -45.4 131.9 -45.4 L 131.9 -45.4 L 131.9 -45.4 Q 128.6 -45.4 126.8 -47.5 L 126.8 -47.5 L 126.8 -47.5 Q 124.9 -49.5 124.9 -53.1 Z M 190 -51.1 L 190 -51.1 L 190 -51.1 Q 187.3 -48.4 183.6 -46.9 L 183.6 -46.9 L 183.6 -46.9 Q 179.9 -45.4 176.3 -45.4 L 176.3 -45.4 L 176.3 -45.4 Q 172.7 -45.4 171.4 -46.1 L 171.4 -46.1 L 169.4 -35.2 L 156.4 -33.9 L 165.2 -79.4 L 175.7 -80.5 L 174.8 -76 L 174.8 -76 Q 177.5 -80.6 183.1 -80.6 L 183.1 -80.6 L 183.1 -80.6 Q 189.4 -80.6 192.7 -76.5 L 192.7 -76.5 L 192.7 -76.5 Q 195.6 -72.9 195.6 -67.3 L 195.6 -67.3 L 195.6 -67.3 Q 195.6 -61.8 194.2 -57.8 L 194.2 -57.8 L 194.2 -57.8 Q 192.7 -53.8 190 -51.1 Z M 175.5 -69.1 L 172.1 -50.3 L 172.1 -50.3 Q 173.5 -49.2 175.1 -49.2 L 175.1 -49.2 L 175.1 -49.2 Q 176.8 -49.2 177.8 -49.8 L 177.8 -49.8 L 177.8 -49.8 Q 178.7 -50.4 179.4 -51.7 L 179.4 -51.7 L 179.4 -51.7 Q 181.4 -55.2 182.9 -65.7 L 182.9 -65.7 L 182.9 -65.7 Q 183.3 -68.7 183.3 -71.7 L 183.3 -71.7 L 183.3 -71.7 Q 183.3 -74.8 182.7 -75.7 L 182.7 -75.7 L 182.7 -75.7 Q 182 -76.7 180.7 -76.7 L 180.7 -76.7 L 180.7 -76.7 Q 176.8 -76.7 175.5 -69.1 L 175.5 -69.1 Z M 219.8 -54 L 219.8 -54 L 219.8 -54 Q 216.5 -50.5 210.4 -50.5 L 210.4 -50.5 L 210.4 -50.5 Q 202.8 -50.5 201.2 -56.1 L 201.2 -56.1 L 201.2 -56.1 Q 200.7 -57.7 200.7 -59.6 L 200.7 -59.6 L 200.7 -59.6 Q 200.7 -61.4 201.1 -63.4 L 201.1 -63.4 L 204.1 -79.4 L 217.1 -80.6 L 213.5 -62 L 213.5 -62 Q 213.4 -61.2 213.2 -60.3 L 213.2 -60.3 L 213.2 -60.3 Q 213 -59.4 213 -58.5 L 213 -58.5 L 213 -58.5 Q 213 -57.5 213.4 -56.9 L 213.4 -56.9 L 213.4 -56.9 Q 213.7 -56.3 214.1 -55.9 L 214.1 -55.9 L 214.1 -55.9 Q 214.9 -55.4 216.3 -55.4 L 216.3 -55.4 L 216.3 -55.4 Q 217.6 -55.4 218.8 -57.1 L 218.8 -57.1 L 218.8 -57.1 Q 220 -58.8 220.6 -61.6 L 220.6 -61.6 L 224.1 -79.4 L 236.7 -80.6 L 231.9 -55.5 L 231.9 -55.5 Q 229.5 -43.2 224.7 -38.3 L 224.7 -38.3 L 224.7 -38.3 Q 222.2 -35.8 219 -34.9 L 219 -34.9 L 219 -34.9 Q 215.7 -33.9 211.6 -33.9 L 211.6 -33.9 L 211.6 -33.9 Q 204.8 -33.9 201 -36 L 201 -36 L 201 -36 Q 197.2 -38.1 197.2 -41.6 L 197.2 -41.6 L 197.2 -41.6 Q 197.2 -44.2 199.1 -45.7 L 199.1 -45.7 L 199.1 -45.7 Q 201.1 -47.2 204.2 -47.2 L 204.2 -47.2 L 204.2 -47.2 Q 206.9 -47.2 208.9 -46.1 L 208.9 -46.1 L 208.9 -46.1 Q 210.2 -45.4 210.7 -44.5 L 210.7 -44.5 L 210.7 -44.5 Q 209.3 -43.2 209.3 -41.1 L 209.3 -41.1 L 209.3 -41.1 Q 209.3 -38.3 211.8 -38.3 L 211.8 -38.3 L 211.8 -38.3 Q 216 -38.3 218.5 -48 L 218.5 -48 L 218.5 -48 Q 219.2 -50.9 219.8 -54 Z M 240 -53.1 L 240 -53.1 L 240 -53.1 Q 240 -54.9 240.9 -59.2 L 240.9 -59.2 L 244.3 -76.5 L 240.6 -76.5 L 240.8 -78.4 L 240.8 -78.4 Q 248.5 -80.7 255.9 -86.3 L 255.9 -86.3 L 259 -86.3 L 257.5 -79.4 L 262.4 -79.4 L 261.9 -76.5 L 256.9 -76.5 L 253.7 -59.2 L 253.7 -59.2 Q 252.8 -55.2 252.8 -53.9 L 252.8 -53.9 L 252.8 -53.9 Q 252.8 -50.8 255.5 -50.2 L 255.5 -50.2 L 255.5 -50.2 Q 254.9 -48 252.6 -46.7 L 252.6 -46.7 L 252.6 -46.7 Q 250.3 -45.4 247 -45.4 L 247 -45.4 L 247 -45.4 Q 243.8 -45.4 241.9 -47.5 L 241.9 -47.5 L 241.9 -47.5 Q 240 -49.5 240 -53.1 Z M 294.3 -53.8 L 294.3 -53.8 L 294.3 -53.8 Q 294.3 -51 297.2 -50.2 L 297.2 -50.2 L 297.2 -50.2 Q 296.5 -47.8 293.7 -46.5 L 293.7 -46.5 L 293.7 -46.5 Q 291.4 -45.4 288.9 -45.4 L 288.9 -45.4 L 288.9 -45.4 Q 286.4 -45.4 285.1 -46.1 L 285.1 -46.1 L 285.1 -46.1 Q 283.8 -46.8 283.1 -47.9 L 283.1 -47.9 L 283.1 -47.9 Q 281.9 -49.5 281.9 -52.7 L 281.9 -52.7 L 281.9 -52.7 Q 281.9 -54.5 282.9 -59.7 L 282.9 -59.7 L 283.8 -64.5 L 283.8 -64.5 Q 284.9 -70.1 284.9 -72.1 L 284.9 -72.1 L 284.9 -72.1 Q 284.9 -75.7 282.9 -75.7 L 282.9 -75.7 L 282.9 -75.7 Q 280.4 -75.7 278.8 -72.1 L 278.8 -72.1 L 278.8 -72.1 Q 278.2 -70.7 277.7 -68.5 L 277.7 -68.5 L 273.4 -46.7 L 260.5 -45.4 L 269.5 -91.5 L 282.4 -92.8 L 281.9 -90.2 L 281.9 -90.2 Q 280.1 -80.4 278.6 -77.1 L 278.6 -77.1 L 278.6 -77.1 Q 282.2 -80.6 288.7 -80.6 L 288.7 -80.6 L 288.7 -80.6 Q 295.7 -80.6 297 -76 L 297 -76 L 297 -76 Q 297.5 -74.6 297.5 -73.3 L 297.5 -73.3 L 297.5 -73.3 Q 297.5 -72 297.4 -71 L 297.4 -71 L 297.4 -71 Q 297.3 -70 296.9 -68.2 L 296.9 -68.2 L 296.1 -63.6 L 294.6 -56.4 L 294.6 -56.4 Q 294.3 -54.9 294.3 -53.8 Z M 316.3 -45.4 L 316.3 -45.4 L 316.3 -45.4 Q 302.3 -45.4 302.3 -58.7 L 302.3 -58.7 L 302.3 -58.7 Q 302.3 -68.1 307.4 -74.2 L 307.4 -74.2 L 307.4 -74.2 Q 312.9 -80.6 322.5 -80.6 L 322.5 -80.6 L 322.5 -80.6 Q 329.4 -80.6 332.9 -77.4 L 332.9 -77.4 L 332.9 -77.4 Q 336.4 -74.2 336.4 -67.5 L 336.4 -67.5 L 336.4 -67.5 Q 336.4 -57.3 330.9 -51.3 L 330.9 -51.3 L 330.9 -51.3 Q 325.5 -45.4 316.3 -45.4 Z M 318 -73.3 L 318 -73.3 L 318 -73.3 Q 317.2 -71.6 316.6 -69 L 316.6 -69 L 316.6 -69 Q 316 -66.4 315.2 -62.3 L 315.2 -62.3 L 315.2 -62.3 Q 314.5 -58.2 314.5 -53.1 L 314.5 -53.1 L 314.5 -53.1 Q 314.5 -51.5 315 -50.4 L 315 -50.4 L 315 -50.4 Q 315.6 -49.3 317 -49.3 L 317 -49.3 L 317 -49.3 Q 318.5 -49.3 319.4 -50 L 319.4 -50 L 319.4 -50 Q 320.4 -50.7 321.1 -52.4 L 321.1 -52.4 L 321.1 -52.4 Q 322.3 -55.3 323.4 -60.8 L 323.4 -60.8 L 323.4 -60.8 Q 324.4 -66.2 324.5 -68.6 L 324.5 -68.6 L 324.5 -68.6 Q 324.6 -71 324.6 -72.7 L 324.6 -72.7 L 324.6 -72.7 Q 324.6 -74.5 324.1 -75.7 L 324.1 -75.7 L 324.1 -75.7 Q 323.6 -76.8 322.1 -76.8 L 322.1 -76.8 L 322.1 -76.8 Q 320.7 -76.8 319.7 -75.9 L 319.7 -75.9 L 319.7 -75.9 Q 318.8 -75 318 -73.3 Z M 367.3 -45.4 L 367.3 -45.4 L 367.3 -45.4 Q 359.5 -45.4 359.5 -51.5 L 359.5 -51.5 L 359.5 -51.5 Q 359.6 -53.1 360.1 -55.9 L 360.1 -55.9 L 361.3 -61.8 L 361.3 -61.8 Q 363 -70.1 363 -72 L 363 -72 L 363 -72 Q 363 -75.7 360.8 -75.7 L 360.8 -75.7 L 360.8 -75.7 Q 357.2 -75.7 355.2 -66.2 L 355.2 -66.2 L 351.5 -46.7 L 338.6 -45.4 L 345.3 -79.4 L 355.8 -80.6 L 354.7 -74.4 L 354.7 -74.4 Q 357.7 -80.6 367 -80.6 L 367 -80.6 L 367 -80.6 Q 371.4 -80.6 373.3 -78.8 L 373.3 -78.8 L 373.3 -78.8 Q 375.2 -76.9 375.2 -72.6 L 375.2 -72.6 L 375.2 -72.6 Q 375.2 -68.7 373.2 -59.4 L 373.2 -59.4 L 373.2 -59.4 Q 372.2 -55.2 372.2 -53.7 L 372.2 -53.7 L 372.2 -53.7 Q 372.2 -52.1 373.1 -51.2 L 373.1 -51.2 L 373.1 -51.2 Q 373.9 -50.3 375.2 -50.2 L 375.2 -50.2 L 375.2 -50.2 Q 374.6 -48 372.4 -46.7 L 372.4 -46.7 L 372.4 -46.7 Q 370.2 -45.4 367.3 -45.4 Z" fill="#bb3746"></path></g></g><style>text {
  font-size: 64px;
  font-family: Arial Black;
  dominant-baseline: central;
  text-anchor: middle;
}</style></svg>